<?xml version="1.0" encoding="UTF-8"?>
<svg width="94px" height="94px" viewBox="0 0 94 94" version="1.1" xmlns="http://www.w3.org/2000/svg" xmlns:xlink="http://www.w3.org/1999/xlink">
    <!-- Generator: Sketch 48.2 (47327) - http://www.bohemiancoding.com/sketch -->
    <title>noun_930662_cc</title>
    <desc>Created with Sketch.</desc>
    <defs></defs>
    <g id="Page-1" stroke="none" stroke-width="1" fill="none" fill-rule="evenodd">
        <g id="noun_930662_cc" fill="#FFFFFF" fill-rule="nonzero">
            <path d="M93.277,64.762 C93.232,64.584 93.101,64.44 92.931,64.377 L92.175,64.094 C92.175,64.094 91.937,64.004 91.466,63.875 C91.351,63.847 91.22,63.81 91.07,63.769 C90.72,63.673 90.291,63.555 89.818,63.459 C88.593,63.194 86.597,62.846 84.041,62.694 C81.664,62.546 78.959,62.602 76.242,62.857 C73.519,63.114 70.633,63.625 67.66,64.37 C66.021,64.789 64.435,65.26 62.918,65.78 C63.143,65.555 63.361,65.336 63.572,65.118 C66.092,62.548 68.603,59.618 71.037,56.41 C73.461,53.189 75.596,49.976 77.383,46.859 C79.168,43.733 80.725,40.573 81.887,37.725 C83.153,34.649 83.899,32.171 84.297,30.642 C84.469,30.025 84.584,29.475 84.697,28.938 L84.797,28.482 C84.908,27.942 84.949,27.638 84.949,27.636 L85.074,26.669 C85.097,26.471 85.015,26.274 84.857,26.153 C84.699,26.032 84.484,26.007 84.302,26.084 L83.404,26.466 C83.404,26.466 83.121,26.586 82.601,26.858 C82.47,26.93 82.32,27.009 82.134,27.105 C81.732,27.316 81.234,27.576 80.7,27.899 C79.327,28.704 77.139,30.094 74.522,32.144 C72.086,34.042 69.467,36.398 66.948,38.958 C64.438,41.512 61.923,44.437 59.471,47.655 C57.551,50.192 55.813,52.729 54.282,55.225 C54.38,54.562 54.468,53.9 54.55,53.239 C55.089,48.94 55.362,44.31 55.366,39.476 C55.35,34.614 55.069,29.985 54.53,25.721 C54.026,21.644 53.243,17.487 52.262,13.697 C51.266,9.843 50.2,6.924 49.481,5.156 C48.706,3.221 48.094,2.065 47.975,1.847 L47.486,0.954 C47.29,0.597 46.704,0.597 46.507,0.954 L46.014,1.852 C45.9,2.064 45.287,3.221 44.514,5.15 C43.798,6.911 42.734,9.822 41.73,13.696 C40.75,17.492 39.966,21.649 39.463,25.718 C38.924,29.984 38.643,34.614 38.627,39.479 C38.63,44.318 38.905,48.947 39.444,53.235 C39.525,53.893 39.613,54.556 39.71,55.224 C38.181,52.727 36.44,50.188 34.521,47.65 C32.07,44.435 29.554,41.51 27.045,38.956 C24.525,36.396 21.906,34.04 19.473,32.144 C16.855,30.092 14.67,28.704 13.306,27.904 C12.77,27.579 12.28,27.322 11.853,27.099 C11.68,27.009 11.524,26.928 11.366,26.84 C10.875,26.584 10.592,26.464 10.591,26.464 L9.694,26.083 C9.511,26.005 9.298,26.03 9.139,26.152 C8.98,26.273 8.897,26.47 8.922,26.668 L9.046,27.636 C9.046,27.636 9.087,27.94 9.205,28.512 C9.24,28.659 9.277,28.832 9.317,29.03 C9.411,29.476 9.527,30.025 9.693,30.623 C10.098,32.17 10.846,34.657 12.106,37.719 C13.271,40.573 14.83,43.733 16.614,46.858 C18.398,49.973 20.533,53.186 22.96,56.412 C25.391,59.614 27.9,62.543 30.42,65.113 C30.633,65.332 30.852,65.553 31.076,65.778 C29.557,65.257 27.97,64.784 26.331,64.366 C23.362,63.623 20.477,63.112 17.754,62.853 C15.036,62.598 12.323,62.543 9.96,62.692 C7.398,62.843 5.406,63.191 4.194,63.455 C3.704,63.553 3.274,63.671 2.925,63.767 C2.775,63.808 2.643,63.845 2.492,63.882 C2.057,64.002 1.818,64.092 1.817,64.093 L1.065,64.375 C0.895,64.437 0.765,64.582 0.72,64.758 C0.674,64.935 0.719,65.123 0.838,65.262 L1.363,65.87 C1.363,65.87 1.53,66.063 1.882,66.401 C1.966,66.479 2.062,66.571 2.171,66.676 C2.434,66.93 2.758,67.242 3.133,67.555 C4.08,68.371 5.667,69.631 7.844,70.991 C9.856,72.255 12.252,73.493 14.773,74.573 C17.28,75.643 20.058,76.577 23.032,77.344 C25.991,78.094 28.875,78.608 31.605,78.869 C31.77,78.885 31.935,78.9 32.1,78.914 C31.6,79.176 31.112,79.449 30.637,79.728 C28.894,80.734 27.194,81.9 25.582,83.191 C24.123,84.357 22.735,85.658 21.569,86.949 C20.349,88.295 19.512,89.459 19.025,90.203 C18.519,90.98 18.231,91.521 18.151,91.68 L17.767,92.442 C17.682,92.61 17.687,92.811 17.783,92.973 C17.877,93.135 18.047,93.241 18.235,93.25 L19.086,93.297 L19.086,93.287 C19.25,93.31 19.44,93.31 19.646,93.31 C19.933,93.31 20.326,93.302 20.811,93.275 C21.699,93.22 23.127,93.076 24.891,92.691 C26.594,92.32 28.413,91.761 30.149,91.08 C32.068,90.326 33.924,89.432 35.664,88.422 C39.068,86.477 42.378,83.846 44.744,81.207 C45.569,80.293 46.355,79.305 46.996,78.377 C47.499,79.107 48.244,80.098 49.247,81.203 C51.612,83.846 54.923,86.476 58.321,88.42 C60.065,89.432 61.923,90.326 63.841,91.08 C65.575,91.762 67.394,92.318 69.099,92.689 C70.865,93.076 72.294,93.22 73.189,93.275 C74.267,93.337 74.906,93.298 74.906,93.296 L75.756,93.249 C75.945,93.239 76.115,93.134 76.209,92.972 C76.303,92.81 76.309,92.609 76.225,92.441 L75.85,91.7 C75.813,91.62 75.51,91.036 74.967,90.2 C74.479,89.458 73.643,88.294 72.428,86.954 C71.256,85.657 69.867,84.356 68.412,83.194 C66.807,81.907 65.107,80.743 63.363,79.735 C62.886,79.454 62.394,79.182 61.892,78.917 C62.058,78.903 62.224,78.888 62.388,78.872 C65.12,78.61 68.005,78.097 70.966,77.345 C73.935,76.579 76.712,75.646 79.222,74.574 C81.738,73.498 84.132,72.26 86.148,70.996 C88.32,69.641 89.906,68.381 90.845,67.568 C91.238,67.242 91.564,66.927 91.829,66.672 C91.934,66.57 92.028,66.479 92.136,66.381 C92.46,66.067 92.626,65.875 92.626,65.875 L93.155,65.266 C93.277,65.126 93.322,64.939 93.277,64.762 Z M57.357,76.88 L54.093,76.866 C54.093,76.866 54.093,76.866 54.091,76.866 C53.823,76.866 53.593,77.059 53.544,77.323 C53.493,77.587 53.64,77.85 53.892,77.946 L56.749,79.038 C58.681,79.776 60.526,80.659 62.239,81.665 C63.885,82.614 65.493,83.716 67.016,84.938 C68.377,86.024 69.674,87.239 70.772,88.452 C71.708,89.485 72.397,90.405 72.821,91.014 C72.018,90.946 70.905,90.801 69.575,90.51 C67.989,90.166 66.288,89.645 64.659,89.004 C62.847,88.291 61.091,87.445 59.436,86.486 C56.231,84.654 53.122,82.185 50.905,79.713 C49.729,78.414 48.944,77.289 48.585,76.74 C48.437,76.51 48.315,76.312 48.21,76.133 L48.097,75.945 C48.025,75.826 47.911,75.738 47.781,75.699 L47.16,75.51 C47.108,75.494 47.053,75.487 46.998,75.487 C46.943,75.487 46.888,75.495 46.836,75.51 L46.216,75.699 C46.084,75.738 45.971,75.826 45.9,75.945 L45.786,76.136 C45.681,76.312 45.56,76.509 45.418,76.732 C45.057,77.281 44.275,78.402 43.089,79.714 C40.873,82.185 37.764,84.655 34.553,86.491 C32.906,87.444 31.15,88.29 29.335,89.003 C27.708,89.644 26.008,90.165 24.417,90.509 C23.063,90.808 21.919,90.947 21.177,91.011 C21.603,90.4 22.291,89.48 23.228,88.449 C24.315,87.246 25.614,86.029 26.981,84.935 C28.502,83.718 30.109,82.615 31.763,81.658 C33.47,80.658 35.315,79.775 37.249,79.037 L40.106,77.945 C40.358,77.849 40.505,77.586 40.455,77.322 C40.406,77.058 40.176,76.865 39.907,76.865 C39.906,76.865 39.906,76.865 39.905,76.865 L36.643,76.879 C35.041,76.879 33.419,76.801 31.821,76.65 C29.198,76.396 26.427,75.904 23.589,75.183 C20.731,74.445 18.062,73.55 15.655,72.521 C13.241,71.488 10.95,70.304 9.031,69.099 C6.864,67.747 5.317,66.49 4.581,65.853 C4.518,65.798 4.456,65.748 4.395,65.695 C4.479,65.677 4.564,65.658 4.654,65.64 C5.592,65.436 7.548,65.071 10.096,64.92 C12.347,64.778 14.936,64.832 17.545,65.076 C20.158,65.325 22.93,65.815 25.783,66.53 C28.633,67.259 31.303,68.147 33.721,69.176 C34.479,69.5 35.209,69.838 35.924,70.184 L39.82,72.055 C39.902,72.092 39.988,72.11 40.075,72.11 C40.393,72.118 40.642,71.864 40.642,71.553 C40.642,71.336 40.52,71.149 40.339,71.055 L37.129,68.326 C36.678,67.941 36.227,67.558 35.775,67.152 C34.735,66.207 33.368,64.944 32.017,63.551 C29.56,61.047 27.111,58.191 24.74,55.064 C22.366,51.91 20.284,48.776 18.551,45.749 C16.818,42.714 15.304,39.645 14.17,36.872 C12.957,33.923 12.238,31.534 11.847,30.041 C11.802,29.876 11.76,29.717 11.722,29.563 C11.864,29.643 12.011,29.729 12.163,29.82 C13.242,30.453 15.447,31.824 18.098,33.902 C20.454,35.736 22.997,38.025 25.454,40.52 C27.902,43.012 30.355,45.866 32.744,48.999 C35.11,52.126 37.196,55.259 38.947,58.31 C39.741,59.677 40.436,61.02 41.01,62.155 L42.975,66.03 C43.073,66.221 43.268,66.335 43.473,66.335 C43.48,66.335 43.489,66.333 43.494,66.335 C43.803,66.335 44.053,66.085 44.053,65.776 C44.053,65.68 44.029,65.59 43.987,65.51 L43.096,61.414 C42.486,58.602 42.002,55.758 41.658,52.958 C41.131,48.761 40.861,44.226 40.858,39.479 C40.872,34.714 41.148,30.178 41.676,25.991 C42.167,22.011 42.934,17.951 43.891,14.252 C44.909,10.315 46.012,7.383 46.58,5.983 C46.725,5.623 46.863,5.291 46.994,4.988 C47.125,5.292 47.265,5.625 47.409,5.987 C48.103,7.7 49.134,10.525 50.097,14.252 C51.054,17.945 51.82,22.005 52.312,25.994 C52.841,30.178 53.117,34.713 53.13,39.474 C53.128,44.215 52.859,48.752 52.331,52.96 C51.985,55.768 51.501,58.609 50.893,61.408 L49.969,65.653 C49.908,65.926 50.063,66.204 50.326,66.298 C50.592,66.392 50.883,66.277 51.01,66.027 L52.979,62.152 C53.551,61.024 54.245,59.685 55.043,58.305 C56.793,55.258 58.879,52.125 61.242,49.001 C63.633,45.865 66.086,43.011 68.535,40.519 C70.99,38.025 73.535,35.736 75.892,33.899 C78.54,31.823 80.749,30.45 81.837,29.812 C81.985,29.723 82.128,29.64 82.265,29.562 C82.226,29.719 82.183,29.884 82.136,30.056 C81.818,31.269 81.095,33.767 79.816,36.874 C78.687,39.642 77.171,42.711 75.439,45.747 C73.703,48.776 71.621,51.91 69.25,55.061 C66.875,58.192 64.426,61.048 61.969,63.555 C60.617,64.943 59.254,66.205 58.223,67.145 C57.789,67.534 57.364,67.897 56.86,68.327 L53.577,71.124 C53.364,71.308 53.319,71.618 53.472,71.854 C53.624,72.088 53.931,72.172 54.181,72.051 L58.068,70.18 C58.783,69.836 59.511,69.498 60.271,69.174 C62.691,68.145 65.361,67.254 68.205,66.528 C71.062,65.813 73.836,65.323 76.447,65.074 C79.056,64.83 81.64,64.776 83.9,64.918 C86.443,65.068 88.406,65.435 89.357,65.642 C89.439,65.658 89.519,65.675 89.597,65.693 C89.533,65.75 89.466,65.806 89.398,65.865 C88.669,66.492 87.125,67.748 84.96,69.099 C83.04,70.302 80.751,71.486 78.341,72.519 C75.931,73.548 73.263,74.443 70.407,75.179 C67.561,75.902 64.79,76.394 62.169,76.648 C60.578,76.802 58.957,76.88 57.357,76.88 Z" id="Shape"></path>
        </g>
    </g>
</svg>