<?xml version="1.0" encoding="UTF-8"?>
<svg width="90px" height="90px" viewBox="0 0 90 90" version="1.1" xmlns="http://www.w3.org/2000/svg" xmlns:xlink="http://www.w3.org/1999/xlink">
    <!-- Generator: Sketch 48.2 (47327) - http://www.bohemiancoding.com/sketch -->
    <title>noun_930661_cc</title>
    <desc>Created with Sketch.</desc>
    <defs></defs>
    <g id="Page-1" stroke="none" stroke-width="1" fill="none" fill-rule="evenodd">
        <g id="noun_930661_cc" fill="#FFFFFF" fill-rule="nonzero">
            <path d="M89.205,62.671 C88.832,62.581 88.271,62.4 87.582,62.263 C86.197,61.962 84.25,61.656 81.973,61.519 C79.694,61.376 77.086,61.423 74.348,61.679 C71.61,61.941 68.75,62.456 65.94,63.163 C63.131,63.88 60.37,64.786 57.84,65.864 C57.065,66.194 56.32,66.54 55.59,66.889 C56.049,66.498 56.508,66.11 56.973,65.694 C58.219,64.559 59.51,63.352 60.776,62.049 C63.323,59.449 65.823,56.516 68.149,53.449 C70.461,50.375 72.608,47.172 74.417,44.015 C76.22,40.856 77.729,37.775 78.858,35.009 C79.995,32.249 80.762,29.814 81.223,28.051 C81.467,27.178 81.592,26.444 81.707,25.965 C81.809,25.477 81.844,25.202 81.844,25.202 C81.844,25.202 81.588,25.311 81.147,25.542 C80.715,25.782 80.043,26.102 79.268,26.571 C77.698,27.492 75.563,28.893 73.213,30.734 C70.856,32.569 68.299,34.857 65.746,37.45 C63.197,40.045 60.697,42.977 58.363,46.038 C56.041,49.107 53.892,52.309 52.084,55.463 C51.32,56.779 50.637,58.086 49.99,59.36 C50.566,56.712 51.072,53.838 51.445,50.81 C51.99,46.462 52.25,41.825 52.254,37.188 C52.238,32.551 51.975,27.915 51.426,23.567 C50.889,19.22 50.084,15.163 49.184,11.685 C48.286,8.206 47.274,5.309 46.45,3.28 C45.635,1.253 45,0.094 45,0.094 C45,0.094 44.364,1.253 43.55,3.282 C42.727,5.311 41.715,8.208 40.815,11.687 C39.917,15.165 39.111,19.222 38.575,23.569 C38.025,27.917 37.762,32.553 37.748,37.19 C37.751,41.827 38.011,46.464 38.557,50.812 C38.928,53.841 39.436,56.716 40.012,59.364 C39.365,58.09 38.682,56.781 37.918,55.465 C36.107,52.311 33.959,49.11 31.638,46.04 C29.305,42.979 26.804,40.046 24.254,37.452 C21.702,34.859 19.146,32.572 16.789,30.736 C14.439,28.895 12.305,27.494 10.732,26.573 C9.958,26.104 9.284,25.784 8.854,25.544 C8.412,25.314 8.157,25.204 8.157,25.204 C8.157,25.204 8.193,25.479 8.295,25.967 C8.409,26.446 8.534,27.181 8.776,28.053 C9.238,29.816 10.007,32.25 11.143,35.011 C12.272,37.777 13.782,40.858 15.585,44.017 C17.393,47.174 19.539,50.377 21.853,53.451 C24.179,56.517 26.677,59.451 29.224,62.051 C30.49,63.354 31.783,64.561 33.027,65.696 C33.494,66.112 33.953,66.501 34.412,66.891 C33.682,66.541 32.936,66.196 32.162,65.866 C29.632,64.788 26.871,63.882 24.062,63.165 C21.25,62.458 18.39,61.942 15.653,61.681 C12.913,61.425 10.308,61.378 8.028,61.521 C5.751,61.658 3.803,61.964 2.418,62.265 C1.73,62.402 1.169,62.583 0.795,62.673 C0.418,62.777 0.212,62.853 0.212,62.853 C0.212,62.853 0.357,63.019 0.638,63.292 C0.923,63.55 1.328,63.976 1.869,64.425 C2.941,65.351 4.505,66.552 6.441,67.759 C8.375,68.974 10.686,70.179 13.216,71.263 C15.744,72.341 18.503,73.253 21.311,73.978 C24.121,74.691 26.98,75.212 29.716,75.474 C31.507,75.646 33.229,75.716 34.852,75.708 C32.974,76.427 31.04,77.331 29.2,78.409 C27.45,79.423 25.782,80.579 24.285,81.78 C22.787,82.975 21.469,84.233 20.4,85.415 C19.33,86.595 18.509,87.7 17.965,88.528 C17.425,89.36 17.153,89.899 17.153,89.899 C17.153,89.899 17.757,89.93 18.748,89.876 C19.736,89.817 21.102,89.657 22.659,89.315 C24.216,88.977 25.961,88.46 27.746,87.756 C29.531,87.055 31.364,86.184 33.115,85.17 C36.627,83.16 39.79,80.551 41.921,78.174 C42.989,76.992 43.81,75.887 44.353,75.057 C44.508,74.815 44.636,74.608 44.748,74.42 C44.85,74.391 44.937,74.363 45.002,74.344 C45.066,74.364 45.154,74.391 45.256,74.42 C45.367,74.608 45.494,74.815 45.65,75.057 C46.193,75.887 47.013,76.993 48.084,78.174 C50.213,80.551 53.375,83.162 56.889,85.17 C58.639,86.184 60.471,87.055 62.256,87.756 C64.041,88.459 65.787,88.977 67.344,89.315 C68.901,89.657 70.268,89.817 71.256,89.876 C72.246,89.931 72.85,89.899 72.85,89.899 C72.85,89.899 72.579,89.36 72.039,88.528 C71.494,87.7 70.672,86.594 69.601,85.415 C68.535,84.233 67.216,82.976 65.718,81.78 C64.222,80.579 62.554,79.423 60.802,78.409 C58.962,77.331 57.029,76.427 55.152,75.708 C56.773,75.716 58.496,75.646 60.285,75.474 C63.023,75.212 65.881,74.691 68.691,73.978 C71.498,73.253 74.257,72.341 76.787,71.263 C79.314,70.179 81.627,68.974 83.56,67.759 C85.496,66.552 87.06,65.351 88.134,64.425 C88.673,63.976 89.079,63.55 89.364,63.292 C89.645,63.019 89.79,62.853 89.79,62.853 C89.79,62.853 89.582,62.774 89.205,62.671 Z" id="Shape"></path>
        </g>
    </g>
</svg>