<?xml version="1.0" encoding="UTF-8"?>
<svg width="26px" height="35px" viewBox="0 0 26 35" version="1.1" xmlns="http://www.w3.org/2000/svg" xmlns:xlink="http://www.w3.org/1999/xlink">
    <!-- Generator: Sketch 51.2 (57519) - http://www.bohemiancoding.com/sketch -->
    <title>Pin Icon</title>
    <desc>Created with Sketch.</desc>
    <defs></defs>
    <g id="Main-Flow" stroke="none" stroke-width="1" fill="none" fill-rule="evenodd">
        <g id="Deal-List" transform="translate(-349.000000, -1861.000000)" fill="#1BE58D">
            <path d="M369.017833,1879.04183 L368.89,1879.2195 L368.7795,1879.408 C368.757833,1879.44483 368.738333,1879.48167 368.718833,1879.5185 L362,1889.5935 L355.300667,1879.54233 L355.222667,1879.408 L355.112167,1879.2195 L354.984333,1879.04183 C353.905333,1877.549 353.333333,1875.807 353.333333,1874 C353.333333,1869.2225 357.2225,1865.33333 362,1865.33333 C366.779667,1865.33333 370.666667,1869.2225 370.666667,1874 C370.666667,1875.807 370.096833,1877.549 369.017833,1879.04183 M362,1861 C354.85,1861 349,1866.85 349,1874 C349,1876.8275 349.925167,1879.44267 351.472167,1881.58117 C351.496,1881.62017 351.506833,1881.6635 351.530667,1881.7025 L360.197333,1894.7025 C360.600333,1895.30483 361.276333,1895.66667 362,1895.66667 C362.723667,1895.66667 363.401833,1895.30483 363.802667,1894.7025 L372.469333,1881.7025 C372.495333,1881.6635 372.506167,1881.62017 372.527833,1881.58117 C374.077,1879.44267 375,1876.8275 375,1874 C375,1866.85 369.15,1861 362,1861 M362,1869.66667 C359.608,1869.66667 357.666667,1871.608 357.666667,1874 C357.666667,1876.39417 359.608,1878.33333 362,1878.33333 C364.394167,1878.33333 366.333333,1876.39417 366.333333,1874 C366.333333,1871.608 364.394167,1869.66667 362,1869.66667" id="Pin-Icon"></path>
        </g>
    </g>
</svg>